<svg xmlns="http://www.w3.org/2000/svg" xmlns:xlink="http://www.w3.org/1999/xlink" xmlns:serif="http://www.serif.com/" viewBox="0 0 32 40" version="1.1" xml:space="preserve" style="" x="0px" y="0px" fill-rule="evenodd" clip-rule="evenodd" stroke-linejoin="round" stroke-miterlimit="2"><g transform="matrix(1,0,0,1,0,-264)"><g transform="matrix(1,0,0,1,-0.0828005,264)"><path d="M22.687,8.521L23.083,3C23.083,3 26.09,7.257 25.504,8.974C24.848,10.893 22.687,8.521 22.687,8.521C22.687,8.521 24.89,20.888 24.844,25.855C24.797,30.822 5.292,29.098 4.167,26.21C3.042,23.321 7.215,8.167 7.215,8.167C12.528,7.505 17.696,7.573 22.687,8.521ZM25.907,9.594C26.844,12.998 28.818,20.282 29.059,22.081C29.311,23.956 27.504,25.448 25.372,26.519C25.434,26.31 25.466,26.09 25.469,25.861C25.505,21.969 24.172,13.562 23.579,10.029C23.725,10.111 23.873,10.181 24.022,10.233C24.433,10.378 24.843,10.391 25.202,10.239C25.461,10.13 25.711,9.933 25.907,9.594ZM15.307,18.797L15.529,19.005L15.776,19.276L15.907,19.439L16.168,19.812L16.339,20.102C16.916,21.148 17.103,22.316 16.718,22.894C15.889,24.145 14.506,21.813 13.248,21.916C12.073,22.012 10.975,24.025 10.086,23.16L9.988,23.052C9.933,22.985 9.88,22.905 9.827,22.813C8.897,21.182 10.57,18.434 13.047,18.055C13.907,17.923 14.681,18.251 15.307,18.797ZM19.078,16.2C18.96,16.073 18.802,15.963 18.597,15.873C18.597,15.873 17.211,15.306 16.886,17.675C16.791,18.37 16.839,18.882 16.974,19.224L17.037,19.36C17.395,20.028 18.155,19.837 18.65,18.952C19.149,18.058 19.498,17.214 19.308,16.597L19.248,16.446L19.176,16.323L19.078,16.2ZM9.646,16.003C8.604,15.127 7.72,15.549 7.75,16.235C7.75,16.235 7.784,17.831 8.26,18.69L8.406,18.91L8.533,19.044L8.634,19.119C8.663,19.137 8.694,19.154 8.725,19.168C9.647,19.57 11.456,18.171 10.197,16.58L9.821,16.161L9.646,16.003ZM16.403,13.922C16.287,13.802 16.134,13.697 15.938,13.611C15.938,13.611 14.551,13.044 14.226,15.413C14.112,16.249 14.205,16.819 14.406,17.15L14.494,17.271C14.505,17.284 14.516,17.296 14.528,17.308C14.92,17.708 15.557,17.465 15.99,16.69C16.613,15.575 17,14.54 16.403,13.922ZM12.564,13.331C12.353,13.128 12.059,13.03 11.651,13.072C11.651,13.072 10.179,13.264 10.906,15.526C11.033,15.918 11.176,16.228 11.327,16.465L11.44,16.628L11.562,16.771C12.228,17.472 12.951,16.921 13.017,15.775C13.076,14.727 13.023,13.802 12.585,13.352L12.564,13.331ZM22.456,3.003L22.113,7.782C17.352,6.956 12.436,6.908 7.387,7.516L8.567,3.071L22.456,3.003Z"/></g></g><text x="0" y="47" fill="#000000" font-size="5px" font-weight="bold" font-family="'Helvetica Neue', Helvetica, Arial-Unicode, Arial, Sans-serif">Created by icon trip</text><text x="0" y="52" fill="#000000" font-size="5px" font-weight="bold" font-family="'Helvetica Neue', Helvetica, Arial-Unicode, Arial, Sans-serif">from the Noun Project</text></svg>